HIERARCHY
ROOT Hips
{
	OFFSET 0.00000 0.00000 0.00000
	CHANNELS 6 Xposition Yposition Zposition Zrotation Yrotation Xrotation 
	JOINT LHipJoint
	{
		OFFSET 0 0 0
		CHANNELS 3 Zrotation Yrotation Xrotation
		JOINT LeftHip
		{
			OFFSET 1.51378 -1.89840 0.47569
			CHANNELS 3 Zrotation Yrotation Xrotation
			JOINT LeftKnee
			{
				OFFSET 2.53380 -6.96157 0.00000
				CHANNELS 3 Zrotation Yrotation Xrotation
				JOINT LeftAnkle
				{
					OFFSET 2.74874 -7.55212 0.00000
					CHANNELS 3 Zrotation Yrotation Xrotation
					JOINT LeftToe
					{
						OFFSET 0.18263 -0.50178 1.99677
						CHANNELS 3 Zrotation Yrotation Xrotation
						End Site
						{
							OFFSET 0.00000 -0.00000 1.03711
						}
					}
				}
			}
		}
	}
	JOINT RHipJoint
	{
		OFFSET 0 0 0
		CHANNELS 3 Zrotation Yrotation Xrotation
		JOINT RightHip
		{
			OFFSET -1.43037 -1.89840 0.47569
			CHANNELS 3 Zrotation Yrotation Xrotation
			JOINT RightKnee
			{
				OFFSET -2.69849 -7.41406 0.00000
				CHANNELS 3 Zrotation Yrotation Xrotation
				JOINT RightAnkle
				{
					OFFSET -2.69369 -7.40087 0.00000
					CHANNELS 3 Zrotation Yrotation Xrotation
					JOINT RightToe
					{
						OFFSET -0.28932 -0.79491 2.04975
						CHANNELS 3 Zrotation Yrotation Xrotation
						End Site
						{
							OFFSET 0.00009 0.00010 1.09536
						}
					}
				}
			}
		}
	}
	JOINT lowerback
	{
		OFFSET 0 0 0
		CHANNELS 3 Zrotation Yrotation Xrotation
		JOINT Chest
		{
			OFFSET 0.01912 1.94784 -0.02419
			CHANNELS 3 Zrotation Yrotation Xrotation
			JOINT Chest2
			{
				OFFSET 0.07565 1.94258 0.01909
				CHANNELS 3 Zrotation Yrotation Xrotation
				JOINT lowerneck
				{
					OFFSET 0 0 0
					CHANNELS 3 Zrotation Yrotation Xrotation
					JOINT Neck
					{
						OFFSET -0.07010 1.86195 0.18976
						CHANNELS 3 Zrotation Yrotation Xrotation
						JOINT Head
						{
							OFFSET 0.02284 1.86595 -0.31497
							CHANNELS 3 Zrotation Yrotation Xrotation
							End Site
							{
								OFFSET 0.01200 1.90122 -0.12838
							}
						}
					}
				}
				JOINT LeftCollar
				{
					OFFSET 0 0 0
					CHANNELS 3 Zrotation Yrotation Xrotation
					JOINT LeftShoulder
					{
						OFFSET 3.39189 0.96331 -0.10437
CHANNELS 3 Zrotation Xrotation Yrotation
						JOINT LeftElbow
						{
OFFSET 0 -5.148450 0.000000
CHANNELS 3 Zrotation Xrotation Yrotation
							JOINT LeftWrist
							{
OFFSET 0 -3.436740 -0.000000
CHANNELS 3 Zrotation Xrotation Yrotation
								JOINT lhand
								{
									OFFSET 0 0 0
CHANNELS 3 Zrotation Xrotation Yrotation
									JOINT LFingers
									{
OFFSET 0 -0.588710 0.000000
CHANNELS 3 Zrotation Xrotation Yrotation
										End Site
										{
OFFSET 0 -0.474630 0.000000
										}
									}
								}
								JOINT LThumb
								{
OFFSET 0 0.000000 0.000000
CHANNELS 3 Zrotation Xrotation Yrotation
									End Site
									{
OFFSET 0 -0.481880 0.481880
									}
								}
							}
						}
					}
				}
				JOINT RightCollar
				{
					OFFSET 0 0 0
					CHANNELS 3 Zrotation Yrotation Xrotation
					JOINT RightShoulder
					{
						OFFSET -3.34934 1.18831 -0.19928
CHANNELS 3 Zrotation Xrotation Yrotation
						JOINT RightElbow
						{
OFFSET 0 -5.421850 0.000000
CHANNELS 3 Zrotation Xrotation Yrotation
							JOINT RightWrist
							{
OFFSET 0 -3.513170 -0.000000
CHANNELS 3 Zrotation Xrotation Yrotation
								JOINT rhand
								{
									OFFSET 0 0 0
CHANNELS 3 Zrotation Xrotation Yrotation
									JOINT RFingers
									{
OFFSET 0 -0.663190 0.000000
CHANNELS 3 Zrotation Xrotation Yrotation
										End Site
										{
OFFSET 0 -0.534680 0.000000
										}
									}
								}
								JOINT RThumb
								{
OFFSET 0 0.000000 0.000000
CHANNELS 3 Zrotation Xrotation Yrotation
									End Site
									{
OFFSET 0 -0.542840 0.542840
									}
								}
							}
						}
					}
				}
			}
		}
	}
}
MOTION
Frames: 10
Frame Time: 0.008333333333333333
-0.530254 18.012371 -0.158733 -3.185704 -25.643967 8.652944 0.000000 0.000000 0.000000 -19.765410 -6.142989 -13.461235 2.258329 9.384658 27.006253 0.792109 6.834561 -20.646280 0.418949 -4.154386 -11.511439 0.000000 0.000000 0.000000 27.238291 8.720695 -14.024393 -3.240129 -11.073996 32.529676 -1.742112 -7.483905 -28.583222 -0.003563 0.383160 -1.052757 1.579695 0.177404 -3.723864 3.284354 0.117034 -0.906155 2.493101 0.054117 1.154306 -4.009463 -2.229065 -17.134014 0.434500 -2.113561 15.122891 0.555165 -1.205591 7.522913 0.000000 0.000000 0.000000 44.380868 28.290524 -50.401451 55.139326 -54.867092 30.330330 28.104904 18.161819 -3.435661 0.000000 0.000000 0.000000 -7.125000 0.000000 0.000000 1.221325 33.871088 0.333473 0.000000 0.000000 0.000000 -53.711579 34.220475 43.902981 -70.351346 -58.488114 -43.070269 -42.834296 0.028838 -35.026622 0.000000 0.000000 0.000000 7.125000 0.000000 0.000000 -5.097766 -13.574106 -6.173215
-0.524975 18.002900 -0.121112 -3.231182 -26.098638 8.657759 0.000000 0.000000 0.000000 -19.872593 -5.568621 -13.541301 2.280914 9.428178 27.144047 0.823115 6.779063 -20.899934 0.430761 -4.211982 -11.673735 0.000000 0.000000 0.000000 27.166691 8.837465 -13.928477 -3.274813 -11.127175 32.709914 -1.767314 -7.347505 -28.667399 -0.007088 0.544711 -1.496831 1.213003 -0.059788 -3.658638 3.318196 -0.188446 -0.760039 2.720315 -0.100129 1.278767 -3.967005 -1.858045 -16.190743 0.507525 -1.678469 14.434317 0.630376 -0.983181 7.125259 0.000000 0.000000 0.000000 46.031092 39.481729 -69.565022 98.573697 -59.717989 67.417904 36.833429 22.776525 -1.029518 0.000000 0.000000 0.000000 -7.125000 0.000000 0.000000 8.177298 31.203214 2.782951 0.000000 0.000000 0.000000 -57.496635 44.651627 64.705276 -112.078073 -58.073637 -78.996250 -51.927050 -7.398227 -38.668519 0.000000 0.000000 0.000000 7.125000 0.000000 0.000000 -8.340041 -21.948914 -10.939530
-0.509033 17.995121 -0.170868 -3.137539 -26.673654 8.297639 0.000000 0.000000 0.000000 -20.013917 -5.293732 -13.368666 2.274587 9.416053 27.105755 0.811051 6.938643 -20.904476 0.407426 -4.097747 -11.351777 0.000000 0.000000 0.000000 27.018496 8.832701 -13.905418 -3.331442 -11.213163 33.002288 -1.805843 -6.777299 -28.580160 -0.005037 0.456916 -1.255441 0.194966 0.038153 -2.816610 3.200215 -0.003497 -0.526491 3.178711 -0.009676 1.039542 -3.542329 -1.782989 -15.650868 0.530420 -1.705213 14.424967 0.569821 -0.971460 7.025717 0.000000 0.000000 0.000000 37.232815 42.322554 -81.319632 112.639287 -57.971908 79.472734 34.338349 29.084004 -4.557684 0.000000 0.000000 0.000000 -7.125000 0.000000 0.000000 6.406088 35.434421 1.513433 0.000000 0.000000 0.000000 -48.219774 46.659518 81.488085 -127.106679 -54.097759 -91.498296 -48.148939 5.622664 -36.011077 0.000000 0.000000 0.000000 7.125000 0.000000 0.000000 -7.473048 -17.124703 -9.407577
-0.497349 17.994937 -0.151386 -3.553767 -27.588224 8.451718 0.000000 0.000000 0.000000 -19.812389 -5.204033 -13.266790 2.303982 9.472422 27.284504 0.772241 7.705034 -21.131864 0.387750 -3.998648 -11.072805 0.000000 0.000000 0.000000 27.265326 9.013078 -13.678270 -3.305548 -11.173937 32.868705 -1.800115 -6.272991 -28.247979 -0.004849 0.449739 -1.235838 -0.150639 -0.140705 -3.571010 3.321148 -0.256503 -0.186671 3.490751 -0.147446 1.827325 -3.131349 -1.353466 -16.060934 0.561166 -1.207564 15.067552 0.563221 -0.711770 7.292134 0.000000 0.000000 0.000000 35.903420 45.623254 -76.679221 112.635624 -57.972549 79.469515 32.947506 25.999752 -5.368366 0.000000 0.000000 0.000000 -7.125000 0.000000 0.000000 5.269428 36.325914 1.127774 0.000000 0.000000 0.000000 -46.630305 47.488341 73.640398 -124.507241 -54.983940 -89.380844 -46.130438 4.178967 -36.675830 0.000000 0.000000 0.000000 7.125000 0.000000 0.000000 -6.237696 -16.841473 -7.815837
-0.437885 17.986100 -0.146685 -3.356356 -28.159690 7.751269 0.000000 0.000000 0.000000 -20.343849 -4.279569 -12.861120 2.296758 9.458641 27.240922 0.792164 7.537506 -21.187185 0.365056 -3.881170 -10.742617 0.000000 0.000000 0.000000 26.846176 8.991291 -13.225763 -3.383207 -11.290985 33.267595 -1.853930 -5.806639 -28.345913 -0.002463 0.317153 -0.871378 0.012237 -0.003768 -3.338835 3.236093 -0.072241 -0.254526 3.318849 -0.051365 1.615477 -3.681698 -1.571371 -15.099160 0.804896 -1.461510 15.138911 0.710134 -0.846579 7.161068 0.000000 0.000000 0.000000 38.409786 44.247457 -74.842496 104.111054 -59.232707 72.188909 33.252509 25.179201 -4.468423 0.000000 0.000000 0.000000 -7.125000 0.000000 0.000000 5.495113 35.275206 1.317843 0.000000 0.000000 0.000000 -51.235745 46.038258 70.547504 -114.219234 -57.661577 -80.809550 -46.238144 1.989702 -36.185595 0.000000 0.000000 0.000000 7.125000 0.000000 0.000000 -6.457189 -16.369918 -8.057924
-0.387650 17.991284 -0.180661 -3.560647 -28.367617 7.901982 0.000000 0.000000 0.000000 -20.219364 -4.038169 -13.245945 2.302268 9.469249 27.274479 0.776025 7.515567 -21.016921 0.420916 -4.164109 -11.538789 0.000000 0.000000 0.000000 26.894701 9.225917 -13.446859 -3.378809 -11.284394 33.245073 -1.830220 -5.714540 -28.136297 -0.002225 0.303895 -0.835031 0.228531 0.030763 -2.987664 3.241422 -0.027842 -0.232286 3.202961 -0.026688 1.438867 -3.537786 -1.538401 -14.774620 0.830992 -1.463587 14.259637 0.697494 -0.829379 6.818549 0.000000 0.000000 0.000000 35.256834 40.681666 -63.607235 79.845344 -59.601017 51.217922 32.389346 24.031808 -4.871741 0.000000 0.000000 0.000000 -7.125000 0.000000 0.000000 4.786074 35.710015 1.095850 0.000000 0.000000 0.000000 -49.703352 42.608423 59.955961 -90.430688 -59.994155 -60.373007 -45.603984 -0.056340 -35.547076 0.000000 0.000000 0.000000 7.125000 0.000000 0.000000 -6.348602 -15.383035 -7.846182
-0.322413 18.008177 -0.261564 -3.602555 -28.500140 8.362159 0.000000 0.000000 0.000000 -20.199823 -4.448637 -13.967784 2.286312 9.438578 27.177116 0.698253 7.805253 -20.499217 0.430084 -4.208404 -11.663861 0.000000 0.000000 0.000000 26.737864 9.538755 -14.264838 -3.367631 -11.267665 33.188000 -1.723468 -5.927251 -27.528770 -0.007169 0.545874 -1.500009 0.128838 0.147303 -2.224794 3.341492 0.146720 -0.285253 3.365776 0.063581 0.946713 -3.908794 -1.768071 -13.855996 1.162686 -1.780554 12.289313 0.840967 -0.958528 6.045066 0.000000 0.000000 0.000000 23.796003 30.411297 -40.477594 42.752779 -49.603431 20.516811 22.938275 19.139936 -11.284609 0.000000 0.000000 0.000000 -7.125000 0.000000 0.000000 -3.775456 42.174384 -0.260652 0.000000 0.000000 0.000000 -39.433894 34.123414 40.690934 -54.173250 -54.535078 -29.544037 -32.924182 12.337661 -26.147331 0.000000 0.000000 0.000000 7.125000 0.000000 0.000000 -1.798253 -0.330932 -1.812502
-0.284974 18.019387 -0.317955 -3.600019 -28.340583 8.710630 0.000000 0.000000 0.000000 -20.168805 -4.659898 -14.471529 2.260193 9.388198 27.017395 0.668968 7.751692 -20.164718 0.457407 -4.338290 -12.030461 0.000000 0.000000 0.000000 26.616510 9.348974 -14.941094 -3.333270 -11.215942 33.011748 -1.676186 -5.849931 -27.156758 -0.013976 0.763088 -2.097230 0.030080 0.266276 -1.814462 3.223319 0.318359 -0.291937 3.301350 0.151779 0.700019 -3.552522 -1.931969 -14.778221 1.486939 -2.084565 12.129522 0.851852 -1.057089 6.155942 0.000000 0.000000 0.000000 12.070867 14.837574 -10.026644 19.073920 -29.507300 5.068777 23.051566 19.450055 -24.799371 0.000000 0.000000 0.000000 -7.125000 0.000000 0.000000 -7.121869 56.501030 2.019153 0.000000 0.000000 0.000000 -28.211838 21.570734 25.799691 -26.239744 -37.437580 -9.035740 -26.470471 14.452983 -22.708783 0.000000 0.000000 0.000000 7.125000 0.000000 0.000000 1.568779 4.930163 1.426164
-0.290716 18.030170 -0.348268 -3.418293 -28.402209 9.038343 0.000000 0.000000 0.000000 -20.259246 -4.909760 -14.845867 2.225576 9.320949 26.804581 0.628079 7.932260 -19.903537 0.519903 -4.621137 -12.831076 0.000000 0.000000 0.000000 26.443315 9.765027 -15.343511 -3.315296 -11.188815 32.919177 -1.614434 -6.181070 -26.914043 -0.021303 0.941970 -2.589265 -0.358661 0.253582 -1.687417 3.181091 0.323502 -0.774139 3.474710 0.163152 0.132013 -3.343798 -2.013680 -15.658399 1.592704 -2.222136 12.061753 0.832157 -1.099966 6.283894 0.000000 0.000000 0.000000 6.878941 11.920972 -10.475501 16.069891 -25.614911 3.676307 16.239421 7.520949 -25.811700 0.000000 0.000000 0.000000 -7.125000 0.000000 0.000000 -14.723496 56.108490 4.063424 0.000000 0.000000 0.000000 -18.206405 13.696034 15.046363 -18.083328 -28.263663 -4.588658 -19.594867 8.260551 -18.408644 0.000000 0.000000 0.000000 7.125000 0.000000 0.000000 5.556217 10.594202 4.461579
-0.316024 18.029152 -0.336831 -3.520619 -28.386802 9.409060 0.000000 0.000000 0.000000 -19.972843 -5.027796 -15.069883 2.212142 9.294702 26.721506 0.625696 8.477800 -20.353468 0.571007 -4.839228 -13.450610 0.000000 0.000000 0.000000 26.561783 9.959581 -15.553667 -3.289965 -11.150227 32.788138 -1.583891 -6.399291 -26.827048 -0.032213 1.158788 -3.185947 -0.416782 0.255037 -2.124667 3.468865 0.328720 -1.253580 3.807271 0.172291 -0.117545 -3.303373 -2.088118 -16.383835 1.056189 -2.223434 12.404028 0.646531 -1.142736 6.508742 0.000000 0.000000 0.000000 2.293919 13.320156 -22.276584 20.631234 -31.395062 5.856796 14.506096 6.226599 -19.143104 0.000000 0.000000 0.000000 -7.125000 0.000000 0.000000 -13.477378 49.225864 1.428187 0.000000 0.000000 0.000000 -10.767293 12.608101 17.624050 -20.223470 -30.910489 -5.645757 -22.802836 1.894977 -19.345931 0.000000 0.000000 0.000000 7.125000 0.000000 0.000000 3.536501 9.161836 2.934013
